<svg width="200" height="166" viewBox="0 0 200 166" fill="none" xmlns="http://www.w3.org/2000/svg">
<g clip-path="url(#clip0_1_14)">
<mask id="mask0_1_14" style="mask-type:luminance" maskUnits="userSpaceOnUse" x="0" y="-34" width="200" height="200">
<path d="M0 -34H200V166H0V-34Z" fill="white"/>
</mask>
<g mask="url(#mask0_1_14)">
<path d="M56.9726 87.4747H25.5576C23.0746 87.4747 21.0616 85.4617 21.0616 82.9787V34.8185C21.0616 32.3355 23.0746 30.3225 25.5576 30.3225H56.9726C59.4556 30.3225 61.4686 32.3355 61.4686 34.8185V82.9787C61.4686 85.4617 59.4556 87.4747 56.9726 87.4747Z" fill="#423F8D"/>
<path d="M172.373 78.2304H164.01L159.808 84.859L161.47 87.4776H175.769L177.003 85.5296L172.373 78.2304ZM173.414 64.5666V75.8758L178.266 83.5318L178.801 82.6898L181.556 78.3446V59.8716L173.414 64.5666ZM154.57 59.8644V76.5892L155.612 78.2304L158.545 82.8612L162.704 76.2968V64.5594L154.57 59.8644ZM181.199 40.9278L177.888 35.6976L173.414 42.7472V53.721L181.556 58.416V41.4914L181.199 40.9278ZM158.366 35.9902L155.241 40.9278L154.57 41.9838V58.4232L162.704 53.7282V42.8256L158.366 35.9902ZM175.341 31.6806H161.099L159.636 33.9924L164.032 40.9278H172.044L176.625 33.6998L175.341 31.6806Z" fill="#181817"/>
<path d="M128.919 35.7333L133.436 42.8471V54.0421L125.302 58.7371V41.4485L125.63 40.9277L128.712 36.0615L128.919 35.7333Z" fill="#181817"/>
<path d="M151.26 31.6805L148.784 35.5907L147.892 37.0033L145.402 40.9277H134.749L130.189 33.7355L131.488 31.6805H151.26Z" fill="#181817"/>
<path d="M133.436 76.2682L128.905 83.4034L128.527 82.804L125.63 78.2304L125.302 77.7096V59.5504L133.436 64.2454V76.2682Z" fill="#181817"/>
<path d="M151.631 87.4775H131.488L130.175 85.4083L134.727 78.2303H145.773L148.234 82.1047V82.1119L151.631 87.4775Z" fill="#181817"/>
<path d="M95.5482 33.3359L103.682 42.6187V54.0351L95.5482 58.7301V33.3359Z" fill="#181817"/>
<path d="M121.848 31.6805L119.073 36.0615L115.998 40.9277H105.045L96.9396 31.6805H121.848Z" fill="#181817"/>
<path d="M103.682 76.5465L95.5481 85.8293V59.5577L103.682 64.2527V76.5465Z" fill="#181817"/>
<path d="M121.856 87.4775H96.9467L105.052 78.2303H115.998L118.894 82.7969L121.856 87.4775Z" fill="#181817"/>
<path d="M82.498 31.6804H74.3424V31.6234H82.498V31.6804Z" fill="#181817"/>
<path d="M91.2956 31.6805V31.6877L85.0952 40.9277H84.1848H84.041L83.5112 40.4711L78.438 36.0187L73.3292 40.4639L72.8238 40.9277H72.7H71.781L65.5804 31.6805H91.2956Z" fill="#181817"/>
<path d="M82.4979 65.0089V83.9099L78.4379 87.4775L74.3423 83.9099V65.0089L78.4379 61.4413L82.4979 65.0089Z" fill="#181817"/>
<path d="M82.4979 41.9389V56.9227L78.4379 60.4903L74.3423 56.9227V41.9389L78.4379 38.3713L82.4979 41.9389Z" fill="#181817"/>
<path d="M119.765 59.1724L115.762 61.4842L112.066 63.6176H105.766L98.0598 59.1724L105.766 54.72H112.066L115.762 56.8606L119.765 59.1724Z" fill="#181817"/>
<path d="M31.084 48.3548V41.8504C31.084 40.3488 32.3014 39.1314 33.8032 39.1314H37.5534V45.6254C37.5534 47.1328 36.3314 48.3548 34.824 48.3548H31.084Z" fill="white"/>
<path d="M37.1289 78.3286H34.3843C32.7961 78.3286 31.5085 77.041 31.5085 75.4528V49.4308H34.3465C35.8831 49.4308 37.1289 50.6766 37.1289 52.2132V78.3286Z" fill="white"/>
<path d="M53.097 57.1456C51.8152 57.6326 48.2014 58.8744 46.3296 59.5148V77.3028C46.3296 77.8664 45.8658 78.3302 45.3022 78.3302H44.7386C42.5124 78.3302 40.7072 76.5252 40.7072 74.2988V50.4674C40.7072 49.8966 41.171 49.4328 41.7418 49.4328H42.284C42.639 49.4328 42.9838 49.4788 43.3126 49.565C43.3126 49.565 44.7458 49.9424 45.5364 51.0676C45.625 51.1938 45.7132 51.3366 45.7132 51.3366C45.737 51.3752 45.7856 51.4542 45.8392 51.551C45.9312 51.718 45.9876 51.8478 46.0052 51.8868C46.1418 52.19 46.3232 52.5924 46.6468 52.7038C46.8302 52.7668 47.0084 52.7192 47.364 52.624C47.5194 52.5826 47.7246 52.5102 47.821 52.4762C47.821 52.4762 47.9716 52.4174 48.1206 52.3654C50.1066 51.6708 52.0926 50.9764 54.0784 50.282C54.6208 50.0892 55.213 50.3746 55.4056 50.917C55.4094 50.9276 55.4242 50.9694 55.44 51.016C55.44 51.016 55.5508 51.3408 55.6258 51.6296C56.1138 53.5078 55.2898 55.1038 55.2898 55.1038C55.085 55.5 54.5102 56.4676 53.4226 57.0044C53.2706 57.0792 53.15 57.1254 53.097 57.1456Z" fill="white"/>
<path d="M23.6822 105.488H22.1422V97.2494H23.6822V105.488Z" fill="#231F20"/>
<path d="M26.9162 98.4596V100.725H28.1262C28.3974 100.725 28.6158 100.629 28.7806 100.435C28.9456 100.242 29.0282 99.9448 29.0282 99.5432C29.0282 99.1128 28.9402 98.8172 28.7642 98.6564C28.6248 98.5252 28.3902 98.4596 28.0602 98.4596H26.9162ZM27.1912 101.936H26.9162V105.489H25.3762V97.2494H28.2912C29.0244 97.2494 29.5818 97.3886 29.9632 97.6662C30.4104 97.9882 30.6342 98.5072 30.6342 99.224C30.6342 99.7578 30.5534 100.182 30.3922 100.497C30.1868 100.906 29.8458 101.144 29.3692 101.21C29.8018 101.275 30.1134 101.448 30.3042 101.727C30.4728 101.969 30.5572 102.302 30.5572 102.728V103.069C30.5572 103.648 30.5774 104.148 30.6176 104.57C30.6578 104.992 30.7478 105.247 30.8872 105.335V105.489H29.1932C29.1124 105.261 29.0648 104.966 29.0502 104.603C29.0354 104.24 29.0282 103.915 29.0282 103.63V103.398C29.0282 103.032 29.0062 102.764 28.9622 102.596C28.8814 102.295 28.7422 102.115 28.5442 102.056C28.3462 101.998 28.1718 101.963 28.0216 101.952C27.8712 101.941 27.6494 101.936 27.3562 101.936H27.1912Z" fill="#231F20"/>
<path d="M33.8681 105.488H32.3281V97.2495H33.8681V100.901C34.0001 100.587 34.1541 100.254 34.3301 99.9033C34.3887 99.7865 34.5647 99.4613 34.8581 98.9275L35.7601 97.2495H37.4981L35.4631 100.787L37.5971 105.488H35.8591L34.4071 102.232L33.8681 103.123V105.488Z" fill="#231F20"/>
<path d="M42.3491 102.862V97.2495H43.8891V102.995C43.8891 103.947 43.7093 104.625 43.3501 105.027C42.9541 105.467 42.2647 105.687 41.2821 105.687C40.2921 105.687 39.5991 105.467 39.2031 105.027C38.8363 104.625 38.6531 103.947 38.6531 102.995V97.2495H40.1931V102.862C40.1931 103.506 40.2847 103.931 40.4681 104.136C40.6513 104.341 40.9263 104.444 41.2931 104.444C41.7403 104.444 42.0411 104.279 42.1951 103.949C42.2977 103.73 42.3491 103.367 42.3491 102.862Z" fill="#231F20"/>
<path d="M45.022 98.4596V97.2494H50.159V98.4596H48.366V105.489H46.826V98.4596H45.022Z" fill="#231F20"/>
<path d="M55.923 99.7465H54.438C54.438 99.2737 54.3934 98.9339 54.3042 98.7269C54.1706 98.4241 53.9106 98.2725 53.5246 98.2725C53.2424 98.2725 53.0288 98.3313 52.884 98.4489C52.7394 98.5665 52.667 98.7647 52.667 99.0437C52.667 99.3229 52.7518 99.5579 52.9216 99.7487C53.0248 99.8663 53.2352 100.024 53.5524 100.222C53.8698 100.421 54.1908 100.634 54.5156 100.861C54.9436 101.162 55.25 101.401 55.4346 101.577C55.6856 101.827 55.8644 102.086 55.9714 102.354C56.0784 102.622 56.132 102.94 56.132 103.307C56.132 104.071 55.901 104.658 55.439 105.069C54.977 105.481 54.361 105.686 53.591 105.686C52.7036 105.686 52.0546 105.455 51.644 104.993C51.27 104.575 51.083 103.97 51.083 103.178V102.573H52.623V103.057C52.623 103.497 52.6944 103.838 52.8374 104.08C52.9806 104.322 53.2316 104.443 53.591 104.443C54.229 104.443 54.548 104.12 54.548 103.474C54.548 103.239 54.4962 103.035 54.393 102.863C54.2896 102.69 54.1458 102.536 53.9612 102.4C53.7766 102.264 53.4446 102.038 52.965 101.722C52.2564 101.26 51.7618 100.845 51.4816 100.477C51.2158 100.088 51.083 99.6663 51.083 99.2107C51.083 97.7567 51.8932 97.0295 53.514 97.0295C54.3464 97.0295 54.9616 97.2431 55.3594 97.6701C55.7352 98.0751 55.923 98.7673 55.923 99.7465Z" fill="#231F20"/>
<path d="M59.157 105.488H57.617V97.2495H59.157V100.901C59.289 100.587 59.443 100.254 59.619 99.9033C59.6776 99.7865 59.8536 99.4613 60.147 98.9275L61.049 97.2495H62.787L60.752 100.787L62.886 105.488H61.148L59.696 102.232L59.157 103.123V105.488Z" fill="#231F20"/>
<path d="M66.34 98.4596V97.2494H71.477V98.4596H69.684V105.489H68.144V98.4596H66.34Z" fill="#231F20"/>
<path d="M76.9 105.488H72.566V97.2495H76.9V98.4595H74.106V100.538H76.68V101.748H74.106V104.278H76.9V105.488Z" fill="#231F20"/>
<path d="M81.652 102.552H83.203L83.17 103.024C83.17 103.839 83.0012 104.469 82.664 104.916C82.2752 105.43 81.6776 105.687 80.871 105.687C80.0716 105.687 79.4666 105.521 79.056 105.191C78.6894 104.897 78.4436 104.449 78.319 103.847C78.2236 103.392 78.176 102.735 78.176 101.876V100.697C78.176 99.449 78.3152 98.5752 78.594 98.0758C78.9826 97.3784 79.7416 97.0296 80.871 97.0296C81.5676 97.0296 82.1176 97.2136 82.521 97.5816C82.9242 97.9498 83.126 98.48 83.126 99.172C83.1552 99.3856 83.17 99.5954 83.17 99.8016H81.647C81.566 99.1662 81.5258 98.845 81.5258 98.8378C81.4226 98.461 81.2058 98.2724 80.8746 98.2724C80.411 98.2724 80.0946 98.4856 79.9256 98.9118C79.8152 99.1836 79.76 99.5728 79.76 100.08V100.355V102.647C79.76 103.154 79.8112 103.536 79.914 103.793C80.09 104.227 80.409 104.444 80.871 104.444C81.2302 104.444 81.465 104.194 81.575 103.696C81.6262 103.461 81.652 103.08 81.652 102.552Z" fill="#231F20"/>
<path d="M86.184 105.488H84.644V97.2495H86.184V100.505H88.34V97.2495H89.88V105.488H88.34V101.715H86.184V105.488Z" fill="#231F20"/>
<path d="M95.259 98.8637V97.2495H96.799V105.488H95.193L93.994 102.557C93.62 101.663 93.2532 100.573 92.894 99.2845V99.4273C92.894 99.6179 92.9086 99.8739 92.938 100.196C93.004 100.928 93.037 101.407 93.037 101.634C93.037 101.876 93.0552 102.377 93.092 103.139C93.1066 103.446 93.114 103.713 93.114 103.94V105.488H91.574V97.2495H93.169L94.368 100.247C94.7492 101.162 95.116 102.253 95.468 103.519L95.336 101.181C95.336 100.902 95.3286 100.606 95.314 100.291C95.2772 99.5007 95.259 99.0249 95.259 98.8637Z" fill="#231F20"/>
<path d="M100.011 100.355V102.647C100.011 103.154 100.062 103.536 100.165 103.793C100.341 104.227 100.66 104.443 101.122 104.443C101.606 104.443 101.928 104.223 102.09 103.782C102.185 103.525 102.233 103.103 102.233 102.515V100.399C102.233 99.7971 102.192 99.3597 102.112 99.0879C101.95 98.5443 101.62 98.2725 101.122 98.2725C100.66 98.2725 100.344 98.4855 100.176 98.9117C100.066 99.1837 100.011 99.5729 100.011 100.08V100.355ZM98.4268 101.876V100.697C98.4268 99.4491 98.566 98.5753 98.8448 98.0759C99.2334 97.3783 99.9924 97.0295 101.122 97.0295C102.244 97.0295 102.999 97.3783 103.388 98.0759C103.674 98.5827 103.817 99.4563 103.817 100.697V101.876C103.817 102.757 103.773 103.41 103.685 103.836C103.56 104.453 103.318 104.904 102.959 105.191C102.548 105.521 101.936 105.686 101.122 105.686C100.322 105.686 99.7174 105.521 99.3068 105.191C98.94 104.897 98.6944 104.449 98.5698 103.847C98.4744 103.392 98.4268 102.735 98.4268 101.876Z" fill="#231F20"/>
<path d="M109.834 105.488H105.434V97.2495H106.974V104.278H109.834V105.488Z" fill="#231F20"/>
<path d="M112.65 100.355V102.647C112.65 103.154 112.701 103.536 112.804 103.793C112.98 104.227 113.299 104.443 113.761 104.443C114.245 104.443 114.567 104.223 114.729 103.782C114.824 103.525 114.872 103.103 114.872 102.515V100.399C114.872 99.7971 114.831 99.3597 114.751 99.0879C114.589 98.5443 114.259 98.2725 113.761 98.2725C113.299 98.2725 112.983 98.4855 112.815 98.9117C112.705 99.1837 112.65 99.5729 112.65 100.08V100.355ZM111.066 101.876V100.697C111.066 99.4491 111.205 98.5753 111.484 98.0759C111.872 97.3783 112.631 97.0295 113.761 97.0295C114.883 97.0295 115.638 97.3783 116.027 98.0759C116.313 98.5827 116.456 99.4563 116.456 100.697V101.876C116.456 102.757 116.412 103.41 116.324 103.836C116.199 104.453 115.957 104.904 115.598 105.191C115.187 105.521 114.575 105.686 113.761 105.686C112.961 105.686 112.356 105.521 111.946 105.191C111.579 104.897 111.333 104.449 111.209 103.847C111.113 103.392 111.066 102.735 111.066 101.876Z" fill="#231F20"/>
<path d="M117.93 101.876V100.697C117.93 99.449 118.069 98.5752 118.348 98.0758C118.736 97.3784 119.495 97.0296 120.625 97.0296C121.336 97.0296 121.886 97.1474 122.275 97.3828C122.729 97.6628 123.041 98.1414 123.209 98.8186C123.232 98.9216 123.25 99.0526 123.265 99.2106C123.279 99.369 123.286 99.5732 123.286 99.8234H121.758C121.758 99.3064 121.702 98.9448 121.592 98.7378C121.429 98.4278 121.109 98.2724 120.63 98.2724C120.166 98.2724 119.849 98.4856 119.679 98.9118C119.569 99.1836 119.514 99.5728 119.514 100.08V100.355V102.647C119.514 103.154 119.565 103.536 119.667 103.793C119.843 104.227 120.163 104.444 120.625 104.444C121.035 104.444 121.332 104.238 121.516 103.828C121.677 103.468 121.758 102.947 121.758 102.265H120.691V101.055H123.253V105.488H122.099V104.542C121.944 104.938 121.728 105.236 121.45 105.433C121.208 105.602 120.933 105.687 120.625 105.687C119.825 105.687 119.22 105.521 118.809 105.191C118.443 104.897 118.197 104.449 118.073 103.847C117.977 103.392 117.93 102.735 117.93 101.876Z" fill="#231F20"/>
<path d="M126.07 97.2494L126.939 99.4096C127.027 99.6362 127.1 99.8462 127.158 100.04C127.217 100.234 127.265 100.444 127.302 100.67C127.36 100.4 127.415 100.184 127.466 100.024C127.489 99.965 127.61 99.6618 127.83 99.1134L128.566 97.2494H130.249L128.072 101.984V105.488H126.532V101.984L124.387 97.2494H126.07Z" fill="#231F20"/>
<path d="M137.62 102.552H139.171L139.138 103.024C139.138 103.839 138.969 104.469 138.632 104.916C138.243 105.43 137.645 105.687 136.839 105.687C136.039 105.687 135.434 105.521 135.024 105.191C134.657 104.897 134.411 104.449 134.287 103.847C134.191 103.392 134.144 102.735 134.144 101.876V100.697C134.144 99.449 134.283 98.5752 134.562 98.0758C134.95 97.3784 135.709 97.0296 136.839 97.0296C137.535 97.0296 138.085 97.2136 138.489 97.5816C138.892 97.9498 139.094 98.48 139.094 99.172C139.123 99.3856 139.138 99.5954 139.138 99.8016H137.615C137.534 99.1662 137.493 98.845 137.493 98.8378C137.39 98.461 137.173 98.2724 136.842 98.2724C136.379 98.2724 136.062 98.4856 135.893 98.9118C135.783 99.1836 135.728 99.5728 135.728 100.08V100.355V102.647C135.728 103.154 135.779 103.536 135.882 103.793C136.057 104.227 136.377 104.444 136.839 104.444C137.198 104.444 137.432 104.194 137.542 103.696C137.594 103.461 137.62 103.08 137.62 102.552Z" fill="#231F20"/>
<path d="M142.119 100.355V102.647C142.119 103.154 142.17 103.536 142.273 103.793C142.449 104.227 142.768 104.443 143.23 104.443C143.714 104.443 144.036 104.223 144.198 103.782C144.293 103.525 144.341 103.103 144.341 102.515V100.399C144.341 99.7971 144.3 99.3597 144.22 99.0879C144.058 98.5443 143.728 98.2725 143.23 98.2725C142.768 98.2725 142.452 98.4855 142.284 98.9117C142.174 99.1837 142.119 99.5729 142.119 100.08V100.355ZM140.535 101.876V100.697C140.535 99.4491 140.674 98.5753 140.953 98.0759C141.341 97.3783 142.1 97.0295 143.23 97.0295C144.352 97.0295 145.107 97.3783 145.496 98.0759C145.782 98.5827 145.925 99.4563 145.925 100.697V101.876C145.925 102.757 145.881 103.41 145.793 103.836C145.668 104.453 145.426 104.904 145.067 105.191C144.656 105.521 144.044 105.686 143.23 105.686C142.43 105.686 141.825 105.521 141.415 105.191C141.048 104.897 140.802 104.449 140.678 103.847C140.582 103.392 140.535 102.735 140.535 101.876Z" fill="#231F20"/>
<path d="M149.071 102.892V105.488H147.531V97.2494H149.985L150.806 101.067C150.926 101.626 151.024 102.261 151.1 102.972C151.137 102.62 151.176 102.287 151.218 101.971C151.259 101.656 151.31 101.355 151.37 101.069L152.187 97.2494H154.626V105.488H153.086V102.896C153.086 102.288 153.097 101.677 153.119 101.062C153.185 99.224 153.218 98.1988 153.218 97.9866L151.546 105.488H150.61L148.994 97.9754H148.939C148.939 98.5842 148.95 99.1966 148.972 99.8126C149.038 101.653 149.071 102.68 149.071 102.892Z" fill="#231F20"/>
<path d="M157.849 98.4596V100.814H158.674C159.04 100.814 159.311 100.726 159.487 100.552C159.693 100.349 159.795 100.011 159.795 99.5384C159.795 99.0882 159.708 98.7956 159.532 98.6612C159.355 98.5268 159.029 98.4596 158.553 98.4596H157.849ZM157.849 105.489H156.309V97.2494H159.454C160.136 97.2494 160.643 97.4942 160.972 97.983C161.244 98.3846 161.379 98.9176 161.379 99.5816C161.379 99.976 161.325 100.33 161.214 100.644C161.083 101.023 160.881 101.319 160.61 101.531C160.389 101.706 160.126 101.832 159.818 101.908C159.51 101.985 159.198 102.023 158.883 102.023H157.849V105.489Z" fill="#231F20"/>
<path d="M164.339 99.8518L163.877 102.189H165.197L164.779 99.8518C164.749 99.7058 164.725 99.565 164.707 99.4296C164.689 99.2944 164.661 99.0548 164.625 98.711L164.57 98.1626L164.493 98.711C164.463 98.967 164.439 99.1772 164.421 99.3418C164.403 99.5064 164.375 99.6764 164.339 99.8518ZM163.228 105.489H161.578L163.547 97.2494H165.626L167.496 105.489H165.846L165.439 103.398H163.635L163.228 105.489Z" fill="#231F20"/>
<path d="M172.237 98.8637V97.2495H173.777V105.488H172.171L170.972 102.557C170.598 101.663 170.231 100.573 169.872 99.2845V99.4273C169.872 99.6179 169.886 99.8739 169.916 100.196C169.982 100.928 170.015 101.407 170.015 101.634C170.015 101.876 170.033 102.377 170.07 103.139C170.084 103.446 170.092 103.713 170.092 103.94V105.488H168.552V97.2495H170.147L171.346 100.247C171.727 101.162 172.094 102.253 172.446 103.519L172.314 101.181C172.314 100.902 172.306 100.606 172.292 100.291C172.255 99.5007 172.237 99.0249 172.237 98.8637Z" fill="#231F20"/>
<path d="M176.549 97.2494L177.418 99.4096C177.506 99.6362 177.579 99.8462 177.637 100.04C177.696 100.234 177.744 100.444 177.781 100.67C177.839 100.4 177.894 100.184 177.945 100.024C177.968 99.965 178.089 99.6618 178.309 99.1134L179.045 97.2494H180.728L178.551 101.984V105.488H177.011V101.984L174.866 97.2494H176.549Z" fill="#231F20"/>
</g>
</g>
<defs>
<clipPath id="clip0_1_14">
<rect width="200" height="200" fill="white" transform="translate(0 -34)"/>
</clipPath>
</defs>
</svg>
